<?xml version="1.0" encoding="UTF-8"?>
<!DOCTYPE svg PUBLIC "-//W3C//DTD SVG 1.1//EN" "http://www.w3.org/Graphics/SVG/1.1/DTD/svg11.dtd">
<svg xmlns="http://www.w3.org/2000/svg" version="1.1" width="512px" height="512px" style="shape-rendering:geometricPrecision; text-rendering:geometricPrecision; image-rendering:optimizeQuality; fill-rule:evenodd; clip-rule:evenodd" xmlns:xlink="http://www.w3.org/1999/xlink">
<g><path style="opacity:0.972" fill="#000000" d="M 317.5,-0.5 C 326.833,-0.5 336.167,-0.5 345.5,-0.5C 389.588,8.4143 418.421,34.4143 432,77.5C 435.051,94.019 436.218,110.686 435.5,127.5C 447.171,127.333 458.838,127.5 470.5,128C 477.926,133.42 479.426,140.254 475,148.5C 471.5,152 468,155.5 464.5,159C 490.611,174.27 506.278,196.77 511.5,226.5C 511.5,234.833 511.5,243.167 511.5,251.5C 499.95,298.001 470.284,324.835 422.5,332C 378.621,335.969 344.121,320.136 319,284.5C 297.636,241.854 303.802,203.687 337.5,170C 342.558,165.943 347.892,162.276 353.5,159C 348.585,154.756 344.419,149.923 341,144.5C 339.067,136.872 341.567,131.372 348.5,128C 360.162,127.5 371.829,127.333 383.5,127.5C 383.732,115.8 383.232,104.134 382,92.5C 375.351,67.1792 359.018,53.5125 333,51.5C 310.223,52.6063 294.223,63.6063 285,84.5C 283.528,88.7232 282.528,93.0566 282,97.5C 281.031,196.182 281.364,294.848 283,393.5C 285.034,421.946 294.368,447.613 311,470.5C 317.031,476.866 323.364,482.866 330,488.5C 334.969,498.362 332.802,506.029 323.5,511.5C 278.167,511.5 232.833,511.5 187.5,511.5C 178.198,506.029 176.031,498.362 181,488.5C 199.868,473.958 212.868,455.291 220,432.5C 225.159,415.545 228.159,398.212 229,380.5C 229.167,354.5 229.333,328.5 229.5,302.5C 229.641,274.467 229.141,246.467 228,218.5C 222.313,197.48 208.813,184.647 187.5,180C 156.595,177.922 137.095,191.755 129,221.5C 127.82,232.803 127.32,244.136 127.5,255.5C 139.171,255.333 150.838,255.5 162.5,256C 169.433,259.372 171.933,264.872 170,272.5C 166.581,277.923 162.415,282.756 157.5,287C 191.391,307.947 206.891,338.447 204,378.5C 197.075,414.091 176.909,438.924 143.5,453C 97.3756,469.045 56.8756,460.211 22,426.5C 10.1748,412.851 2.67476,397.185 -0.5,379.5C -0.5,371.167 -0.5,362.833 -0.5,354.5C 4.7221,324.77 20.3888,302.27 46.5,287C 41.9657,282.801 37.799,278.301 34,273.5C 31.8631,265.959 34.0298,260.126 40.5,256C 52.1619,255.5 63.8286,255.333 75.5,255.5C 71.4139,220.825 79.9139,189.825 101,162.5C 133.389,128.778 171.889,119.278 216.5,134C 220.619,135.559 224.619,137.393 228.5,139.5C 229.095,120.81 229.929,102.143 231,83.5C 242.017,36.9807 270.851,8.98067 317.5,-0.5 Z"/></g>
<g><path style="opacity:1" fill="#5ea516" d="M 351.5,19.5 C 369.689,30.1932 383.189,45.1932 392,64.5C 392.74,65.7494 392.573,66.7494 391.5,67.5C 370.968,37.9318 343.301,28.0984 308.5,38C 304.598,40.1189 300.598,41.9523 296.5,43.5C 275.222,48.2746 260.055,60.6079 251,80.5C 250.536,79.9056 250.369,79.2389 250.5,78.5C 261.482,44.0217 284.816,23.5217 320.5,17C 326.833,16.3333 333.167,16.3333 339.5,17C 343.767,17.1894 347.767,18.0227 351.5,19.5 Z"/></g>
<g><path style="opacity:1" fill="#539213" d="M 351.5,19.5 C 375.969,25.6473 394.469,39.6473 407,61.5C 411.933,70.9656 415.266,80.9656 417,91.5C 417.5,106.163 417.667,120.83 417.5,135.5C 411.833,135.5 406.167,135.5 400.5,135.5C 400.667,121.163 400.5,106.829 400,92.5C 398.444,83.664 395.611,75.3307 391.5,67.5C 392.573,66.7494 392.74,65.7494 392,64.5C 383.189,45.1932 369.689,30.1932 351.5,19.5 Z"/></g>
<g><path style="opacity:1" fill="#518f13" d="M 296.5,43.5 C 280.312,54.8574 269.812,70.1907 265,89.5C 264.333,187.833 264.333,286.167 265,384.5C 265.894,417.841 275.227,448.508 293,476.5C 298.171,482.703 303.671,488.537 309.5,494C 273.5,494.667 237.5,494.667 201.5,494C 202.044,493.283 202.711,492.783 203.5,492.5C 233.997,493.664 264.664,493.831 295.5,493C 275.613,476.42 262.113,455.586 255,430.5C 251.082,414.209 248.248,397.876 246.5,381.5C 246.829,326.428 246.495,271.428 245.5,216.5C 246.833,195.833 246.833,175.167 245.5,154.5C 246.322,134.24 246.822,113.906 247,93.5C 247.495,88.2166 248.662,83.2166 250.5,78.5C 250.369,79.2389 250.536,79.9056 251,80.5C 260.055,60.6079 275.222,48.2746 296.5,43.5 Z"/></g>
<g><path style="opacity:1" fill="#5ea616" d="M 400.5,135.5 C 406.167,135.5 411.833,135.5 417.5,135.5C 417.771,139.136 419.437,141.97 422.5,144C 428.157,144.499 433.824,144.666 439.5,144.5C 432.251,152.251 424.751,159.917 417,167.5C 417.336,171.333 417.169,175 416.5,178.5C 412.666,176.834 408.666,176.334 404.5,177C 396.416,181.457 388.582,186.291 381,191.5C 382.129,182.853 383.129,174.186 384,165.5C 383,163.833 382,162.167 381,160.5C 375.198,155.7 369.698,150.533 364.5,145C 374.5,144.667 384.5,144.333 394.5,144C 398.34,142.492 400.34,139.658 400.5,135.5 Z"/></g>
<g><path style="opacity:1" fill="#529013" d="M 439.5,144.5 C 444.179,144.334 448.845,144.501 453.5,145C 446.635,151.531 440.135,158.364 434,165.5C 433.333,168.167 433.333,170.833 434,173.5C 436.214,179.05 437.048,184.716 436.5,190.5C 429.77,186.474 423.103,182.474 416.5,178.5C 417.169,175 417.336,171.333 417,167.5C 424.751,159.917 432.251,152.251 439.5,144.5 Z"/></g>
<g><path style="opacity:1" fill="#5ea616" d="M 245.5,154.5 C 246.833,175.167 246.833,195.833 245.5,216.5C 239.852,190.685 224.519,173.518 199.5,165C 161.697,156.319 133.864,169.153 116,203.5C 113.484,209.256 111.818,215.256 111,221.5C 110.333,236.5 110.333,251.5 111,266.5C 111.774,268.939 113.274,270.773 115.5,272C 125.833,272.333 136.167,272.667 146.5,273C 140.905,278.051 135.405,283.218 130,288.5C 129,290.167 128,291.833 127,293.5C 127.871,302.186 128.871,310.853 130,319.5C 121.135,312.901 111.468,307.901 101,304.5C 91.8808,308.478 83.0474,313.145 74.5,318.5C 73.9523,312.716 74.7856,307.05 77,301.5C 77.6667,298.833 77.6667,296.167 77,293.5C 70.8651,286.364 64.3651,279.531 57.5,273C 67.5,272.667 77.5,272.333 87.5,272C 89.286,271.215 90.786,270.049 92,268.5C 93.2901,251.9 93.9568,235.233 94,218.5C 104.053,172.778 132.386,148.111 179,144.5C 197.485,144.995 214.318,150.495 229.5,161C 236.504,162.617 241.837,160.45 245.5,154.5 Z"/></g>
<g><path style="opacity:1" fill="#f24234" d="M 454.5,184.5 C 454.435,184.062 454.601,183.728 455,183.5C 477.799,208.832 483.132,237.498 471,269.5C 462.468,287.529 449.634,301.529 432.5,311.5C 393.303,321.156 361.136,310.156 336,278.5C 316.23,243.282 320.73,211.449 349.5,183C 354.428,178.91 359.761,175.41 365.5,172.5C 365.833,173.167 366.167,173.833 366.5,174.5C 364.641,182.96 362.975,191.46 361.5,200C 363.436,211.137 369.77,214.804 380.5,211C 389.771,205.114 399.271,199.614 409,194.5C 419.395,199.947 429.562,205.781 439.5,212C 447.658,214.006 453.158,211.173 456,203.5C 456.096,197.137 455.596,190.804 454.5,184.5 Z"/></g>
<g><path style="opacity:1" fill="#c51d1d" d="M 432.5,311.5 C 449.634,301.529 462.468,287.529 471,269.5C 483.132,237.498 477.799,208.832 455,183.5C 454.601,183.728 454.435,184.062 454.5,184.5C 453.029,181.257 452.029,177.757 451.5,174C 451.833,173.5 452.167,173 452.5,172.5C 484.088,190.343 497.588,217.343 493,253.5C 484.063,284.605 463.896,303.938 432.5,311.5 Z"/></g>
<g><path style="opacity:1" fill="#f5f1f0" d="M 347.5,229.5 C 351.548,229.441 354.715,231.108 357,234.5C 359.501,258.997 372.668,274.164 396.5,280C 401.833,285 401.833,290 396.5,295C 387.461,296.101 379.128,294.101 371.5,289C 351.629,276.764 341.462,258.931 341,235.5C 342.494,232.686 344.66,230.686 347.5,229.5 Z"/></g>
<g><path style="opacity:1" fill="#f24234" d="M 146.5,310.5 C 172.229,338.091 177.062,369.091 161,403.5C 151.975,419.024 139.809,431.358 124.5,440.5C 87.089,448.641 55.9223,438.307 31,409.5C 8.46484,373.624 12.2982,340.791 42.5,311C 47.4275,306.91 52.7609,303.41 58.5,300.5C 58.8333,300.833 59.1667,301.167 59.5,301.5C 56.7617,311.683 55.2617,322.017 55,332.5C 59.0234,340.377 65.1901,342.543 73.5,339C 82.7707,333.114 92.2707,327.614 102,322.5C 112.069,328.453 122.236,334.286 132.5,340C 140.578,342.045 146.078,339.212 149,331.5C 148.89,324.441 148.057,317.441 146.5,310.5 Z"/></g>
<g><path style="opacity:1" fill="#c41d1d" d="M 124.5,440.5 C 139.809,431.358 151.975,419.024 161,403.5C 177.062,369.091 172.229,338.091 146.5,310.5C 144.875,307.35 144.542,304.017 145.5,300.5C 174.401,316.6 188.234,341.267 187,374.5C 180.079,409.59 159.245,431.59 124.5,440.5 Z"/></g>
<g><path style="opacity:1" fill="#f5f1f0" d="M 39.5,357.5 C 43.9503,357.142 47.4503,358.808 50,362.5C 50.9396,379.561 58.4396,392.727 72.5,402C 76.9658,404.266 81.6324,405.933 86.5,407C 94.0063,410.379 95.3396,415.379 90.5,422C 84.4125,424.06 78.4125,423.726 72.5,421C 47.7982,409.759 34.9649,390.592 34,363.5C 35.3597,360.977 37.193,358.977 39.5,357.5 Z"/></g>
<g><path style="opacity:1" fill="#5fa716" d="M 246.5,381.5 C 248.248,397.876 251.082,414.209 255,430.5C 262.113,455.586 275.613,476.42 295.5,493C 264.664,493.831 233.997,493.664 203.5,492.5C 224.186,471.801 237.019,446.801 242,417.5C 244.049,405.555 245.549,393.555 246.5,381.5 Z"/></g>
</svg>
